<svg xmlns="http://www.w3.org/2000/svg" viewBox="0 0 512 512" enable-background="new 0 0 512 512"><path fill="#FFCA4F" d="M256 0C397.38 0 512 114.6 512 256S397.38 512 256 512 0 397.38 0 256 114.6 0 256 0z"/><path fill="#20D0C2" d="M227.53 12.3L173 282.6l-85.6-30.93 11.93-198.1c24.83-19.24 53.27-34.02 84.14-43.13l44.1 1.87z"/><path fill="#fff" d="M227.53 12.3l-2.8 13.86-74.35-3.4c10.65-4.84 21.7-8.97 33.06-12.33l44.1 1.87z"/><path fill="#15BDB1" d="M215.86 25.75c-.46 3.37-.92 6.73-1.36 10.1-1.58 11.8-3.1 23.64-4.58 35.47l-4.57-.2c1.46-12.08 2.96-24.16 4.52-36.22.4-3.12.8-6.25 1.23-9.37l4.76.22zM104.52 49.63c1.6-1.17 3.2-2.33 4.83-3.47-.25 6.93-.5 13.87-.73 20.8l-4.62-.2c.18-5.7.35-11.42.53-17.13zm11.88-8.23c1.6-1.05 3.24-2.08 4.87-3.1-.47 9.72-.9 19.43-1.33 29.15l-4.62-.2c.34-8.62.7-17.24 1.08-25.85zm12-7.37c1.62-.95 3.27-1.86 4.92-2.77-.75 12.22-1.43 24.44-2.1 36.68l-4.6-.2c.56-11.24 1.13-22.5 1.77-33.7zm12.1-6.55c1.66-.83 3.3-1.65 4.97-2.45l-.47 6.5c-.88 12.28-1.7 24.58-2.48 36.9l-4.6-.2c.75-12.56 1.53-25.1 2.38-37.64l.2-3.12zm16.9-4.4c-.27 3.05-.53 6.1-.78 9.17-1 12.2-1.93 24.43-2.84 36.65l-4.6-.2c.88-12.47 1.8-24.93 2.76-37.4.22-2.8.44-5.63.67-8.46l4.8.22zm11.7.52c-.28 3.12-.57 6.24-.87 9.36-1.1 12.14-2.16 24.28-3.2 36.43l-4.58-.2c1-12.4 2.03-24.8 3.1-37.15.26-2.9.5-5.78.78-8.66l4.78.2zm11.72.54c-.34 3.18-.67 6.36-1 9.54-1.23 12.04-2.4 24.1-3.54 36.18l-4.58-.2c1.1-12.3 2.26-24.6 3.46-36.9.3-2.95.6-5.9.88-8.84l4.78.22zm11.7.53c-.38 3.24-.75 6.47-1.12 9.7-1.35 12-2.64 23.98-3.9 35.98l-4.57-.2c1.24-12.25 2.5-24.47 3.82-36.7.33-3 .66-6 1-9l4.76.22zm11.67.54c-.43 3.3-.84 6.6-1.25 9.9-1.46 11.9-2.85 23.8-4.24 35.73l-4.56-.2c1.35-12.15 2.74-24.32 4.18-36.46.36-3.06.73-6.12 1.1-9.18l4.77.2z"/><path fill="#fff" d="M215.6 71.43l-1.18 5.87-116.16-6.27.35-5.9 117 6.3z"/><path fill="#C8CACC" d="M383.23 31.8C454.33 31.8 512 89.43 512 160.55s-57.65 128.76-128.77 128.76-128.77-57.65-128.77-128.76S312.1 31.8 383.23 31.8z"/><path fill="#ECF0F1" d="M382.54 32.43c70.38 0 127.44 57.05 127.44 127.44S452.92 287.3 382.54 287.3 255.1 230.24 255.1 159.86 312.16 32.43 382.54 32.43z"/><path fill="#fff" d="M382.54 32.43c37.52 0 71.25 16.22 94.57 42.02 13.38 20.5 21.15 45 21.15 71.3 0 72.2-58.54 130.73-130.75 130.73-23.37 0-45.3-6.14-64.28-16.88-29.32-23.35-48.12-59.34-48.12-99.74 0-70.38 57.06-127.43 127.44-127.43z"/><path fill="#4D4D4D" d="M383.44 51.87c-3.67-.52-11.32-5.2-24.08-6.26l24.08 6.27z"/><g fill="#ECF0F1"><path d="M383.62 57.87l.58 43.94-3 .03-.57-43.93 3-.03zM344.74 50.4c-.08 0-33.92 10.34-50.97 36.1l-2.5-1.66c17.7-26.72 52.6-37.32 52.7-37.35l.76 2.9zM294.52 118.3c.07 0 28.06 3.2 47.2 12.9l-1.35 2.67c-18.6-9.4-45.98-12.6-46.05-12.6l.2-2.98zM273.36 153.44c-.02.08-1.77 37.7 15.8 61.97l-2.42 1.77c-18.33-25.3-16.35-64.14-16.34-64.24l2.96.5zM345.27 256.73c.35 0 1.03.18 2.1.44 7.2 1.76 43.54 8.05 69.45-2.25l1.1 2.78c-26.8 10.65-63.87 4.2-71.24 2.38-.9-.22-1.46-.36-1.5-.36l.08-3zM494.5 152.14c.02.1.17 42.17-17.8 63.96l-2.32-1.9c17.2-20.84 17.15-61.74 17.14-61.83l3-.24zM468.14 120.73c-.06 0-22.97 2.7-41.6 12.13l-.88-2.63c19.1-9.67 41.6-12.13 41.67-12.14l.8 2.63zM358.23 181.75l-33.82 44.6-2.36-1.83 33.82-44.6 2.37 1.83zM408.12 179.2l32.64 43.38-2.4 1.77-32.66-43.4 2.42-1.76zM423.8 49c.1.04 30.26 7.6 47.95 34.33l-2.5 1.65c-17.05-25.75-46.3-33.6-46.38-33.6l.94-2.37z"/></g><g fill="#C8CACC"><path d="M328.32 264.06c.04.04 5.57 7.65 13.1 16.47-1.9-.65-3.77-1.34-5.62-2.07-5.84-7.06-9.8-12.5-9.84-12.55l2.36-1.84zM438.68 264.92c-2.27 4.72-5 9.03-7.93 12.94-1.84.75-3.7 1.46-5.57 2.13 4.07-4.76 7.84-10.22 10.8-16.38l2.7 1.3z"/></g><path fill="#ECF0F1" d="M263.26 144.47c-.02.02-3.77 3.5-7.98 8.6.1-1.68.22-3.35.37-5 3.4-3.84 6.03-6.3 6.05-6.32l1.56 2.72z"/><path fill="#C8CACC" d="M289.64 238.66c-.02 0-3.1 0-8.02-1-.94-1.2-1.86-2.42-2.74-3.66 6.5 1.67 10.76 1.67 10.8 1.67l-.04 3z"/><g fill="#ECF0F1"><path d="M357.67 41.13l-8.1-4.38c1.4-.38 2.85-.75 4.3-1.08l5.08 2.75-1.28 2.7zM406.4 39.06l6.44-3c1.52.38 3.04.77 4.55 1.2l-9.94 4.6-1.06-2.8zM278 94.1l-.9-5.8c.8-1.2 1.62-2.35 2.46-3.5l1.42 9-2.98.3z"/></g><g fill="#C8CACC"><path d="M482.9 92.14l1.82-8.44c.8 1.07 1.57 2.16 2.34 3.25l-1.17 5.44-3-.26zM503.04 141.5l6.18 4.48c.15 1.3.28 2.63.38 3.97l-8.33-6.03 1.77-2.42zM474.25 234.28l13.64-2.7c-.83 1.2-1.67 2.4-2.53 3.56l-10.45 2.06-.67-2.92z"/></g><g fill="#999"><path d="M382.54 98.9l22.27 16.17 22.27 16.18-8.5 26.18-8.5 26.17H355l-8.5-26.17-8.5-26.18 22.26-16.18 22.27-16.17zM382.13 59.8c14.12-5.2 28.8-8.53 44.53-8.48l-17-13.73c-18.36-3.5-36.7-3.5-55.06 0l-17 13.7c15.5-.4 30.44 2.02 44.53 8.5zM285.48 211.48s17.56 12.6 39.32 11.03c0 0 6.25 20.18 25.9 36.1 0 0-7.03 6.9-22.8 9.83 0 0-25.74-7.98-40.87-30.9 0 0-3.73-11.34-1.55-26.05zm152.13 9.5s20.26.27 40.48-10.48c0 0 4.07 12.97-.5 26.06 0 0-11.06 19.66-41.36 31.46 0 0-15.4-1.74-22.82-11.04 0 0 24.26-20.55 24.2-36zM278.16 92.02s7.98-6.3 17.58-9.88c0 0-6.42 15.28 1.08 38.1 0 0-17.17 12.02-23.9 36.47 0 0-5.7-2.5-11.6-12.66-.77-19.14 10.96-45.2 16.84-52.02zM468.3 81.27c6.6 1.27 12.8 4.02 18.35 9.42 10.6 17.3 16.12 34.9 17.15 52.75l-10.93 13.4c-5.82-13.74-13.56-26.63-26.33-37.32 2.55-10.32 3.48-22.64 1.75-38.25z"/></g><path fill="#5DDDD3" d="M18.9 352.68h474.2C454.93 446.14 363.16 512 256 512c-107.17 0-198.94-65.86-237.1-159.32z"/><path fill="#666" d="M321.15 412.9l-14.66-2.8c-1.28-.24-2.7.85-2.47 2.44l1.34 9.08c.24 1.6.9 3.2 2.18 3.33l10 .9c1.28.1 1.8-1.07 2.45-2.46l3.32-7.18c.64-1.4-.9-3.1-2.18-3.33zM72.35 312.46l-16.18-9.67c-1.4-.84-3.97-.42-4.6 1.36l-3.96 11.43c-.6 1.77-.9 3.7.55 4.4l12.9 6.37c1.48.72 3.3.1 4.6-1.36l7.25-8.1c1.3-1.46.87-3.6-.54-4.43zm38.45 18.62l-16.95-8.47c-1.47-.73-3.8-.06-4.32 1.76L86.6 334.8c-.52 1.83-.45 3.7 1.02 4.44l12.83 6.4c1.48.74 3.1-.3 4.33-1.76l7.04-8.37c1.24-1.47.45-3.7-1.02-4.44zm98.62 44.05l-17.27-7.78c-1.5-.67-3.77.1-4.18 1.97l-2.27 10.64c-.4 1.87-.2 3.75 1.3 4.43l13.08 5.9c1.5.68 3.03-.43 4.17-1.96l6.46-8.75c1.15-1.55.23-3.77-1.28-4.44zm38.55 14.68l-17.78-6.44c-1.55-.57-3.68.4-3.86 2.33l-1 10.97c-.18 1.92.23 3.82 1.77 4.38l13.48 4.88c1.54.56 2.92-.7 3.85-2.34l5.3-9.4c.95-1.66-.2-3.83-1.76-4.4zm40.95 14.25l-17.94-5.9c-1.56-.5-3.62.55-3.7 2.5l-.5 11.07c-.07 1.94.4 3.84 1.97 4.35l13.58 4.46c1.56.52 2.87-.8 3.7-2.5l4.84-9.63c.85-1.7-.4-3.84-1.96-4.35h.02z"/><path fill="#fff" d="M346.9 407.15c5.17-21.68-11.37-28.73-53.72-70.8-42.36-42.07-82.85-86.1-88-94.2-5.18-8.08-22.88-16.74-32.88-8.43-10 8.3-27.6 32.84-47.2 26.7-44.22-13.85-29.13-54.97-35-55.1-14.13-.3-42.5 63.62-45.94 77.64.9 1.53 1.02 13.85 1.47 14.24C86.4 332.1 272.6 412.94 340.08 416.08c1.32.06 5.67-8.4 6.8-8.93z"/><path fill="#ECF0F1" d="M144.62 257.64c-6.1 3.33-12.7 4.92-19.53 2.78-39.92-12.5-31.5-47.2-33.82-53.95l-1.2-1.14c-14.1-.3-42.48 63.6-45.93 77.63.92 1.54 1.03 13.85 1.48 14.25 35.17 30.1 178.5 95.9 260.5 115.4l-161.5-154.96z"/><path fill="#FF5B61" d="M346.9 407.15c5.17-21.68-11.36-28.73-53.72-70.8-5.4-5.36-10.75-10.75-16.02-16.1-19.73-2.6-46.7-3.55-57.64 8.12-18.15 19.37-77.24-1.43-107.98-19.16-30.74-17.72-17.56-64.63-30.48-72.1-4.05-2.35-8.52-5.08-12.76-7.73-11.37 19.6-22.1 45.3-24.15 53.6.92 1.52 1.03 13.84 1.48 14.23C86.4 332.1 286.8 421.62 338.8 415.85c1.3-.15 6.94-8.17 8.1-8.7z"/><path fill="#EC4B53" d="M218.94 328.94c-18.77 18.37-76.97-2.17-107.4-19.73-30.74-17.72-17.56-64.63-30.48-72.1-4.05-2.35-8.53-5.08-12.77-7.73-11.37 19.6-22.12 45.3-24.15 53.6.93 1.52 1.03 13.84 1.48 14.23 35.18 30.1 178.5 95.9 260.5 115.4l-87.2-83.66z"/><path fill="#666" d="M296.7 339.82c-1.16-1.13-2.33-2.28-3.52-3.47-42.36-42.07-82.85-86.1-88-94.2-.35-.52-.74-1.04-1.17-1.56l-4.76 3.77c-5.32 4.24-6.27 11.8-1.84 16.6l76.22 82.08c4.43 4.77 12.2 5.43 17.5 1.2l5.58-4.43z"/><path fill="#C8CACC" d="M343.17 410.64c-35.4 18.54-268.05-86.36-296.63-118.15-.5-.57-1.94-12.13-3.04-9.4-2.73 6.77-5.2 12.53-1.5 16.02 15.3 14.36 121.73 69.58 206.82 99.2 35.97 12.52 91.06 24.5 95.56 16.16 4.6-8.48 3.58-9.2 3.07-10.55-.46-1.27-3 6.05-4.28 6.72z"/><g fill="#fff"><path d="M275 318.45l-6.9 5.03c-2.18 1.56-2.47 4.47-.68 6.47 1.8 2 5.03 2.34 7.2.77l6.92-5.02c2.16-1.57 2.45-4.48.66-6.47s-5.02-2.35-7.18-.8v.02zM255.9 298.6l-6.93 5c-2.16 1.58-2.46 4.5-.67 6.5 1.8 1.98 5.03 2.33 7.2.77l6.92-5.03c2.16-1.56 2.46-4.47.67-6.47-1.8-2-5.04-2.35-7.2-.78zM236.78 278.72l-6.93 5.03c-2.16 1.56-2.46 4.47-.67 6.47 1.8 2 5.03 2.35 7.2.78l6.92-5.03c2.16-1.57 2.46-4.48.66-6.47s-5.02-2.34-7.18-.78zM217.66 258.86l-6.92 5.02c-2.17 1.57-2.46 4.48-.67 6.47 1.8 2 5.03 2.35 7.2.8l6.92-5.04c2.15-1.56 2.44-4.47.65-6.46-1.8-2-5.02-2.35-7.18-.78zM191.85 281.82l-77.8 7.57 84.18 4.43-6.38-12.02v.02zm10.2 23.63l-78.14-2.57 82.92 15.32-4.77-12.75z"/></g><g fill="#C8CACC"><path d="M393.62 308.33c-10.7 12.93-35.67 24.33-53.9 25.88 35.2-8.8 50.12-28.68 50.17-28.74l3.72 2.86zM368.88 305.65c-6.68 8.8-31.17 23.45-53.92 25.9 35.23-8.84 50.14-28.7 50.2-28.77l3.72 2.87z"/></g><path fill="#FED198" d="M183.44 10.43l44.1 1.87 2.2-10.97c-15.9 1.63-31.38 4.7-46.3 9.1z"/></svg>