<svg xmlns="http://www.w3.org/2000/svg" width="512" height="512" viewBox="0 0 444.819 444.819" enable-background="new 0 0 444.819 444.819"><path fill="#fff" d="M434.25 114.2l-21.4-21.4c-7.43-7.05-16.1-10.57-25.98-10.57-10.1 0-18.66 3.52-25.7 10.56L222.4 231.54 83.66 92.8c-7.04-7.05-15.6-10.57-25.7-10.57-9.9 0-18.55 3.52-25.97 10.56l-21.13 21.4C3.62 121.45 0 130.1 0 140.2c0 10.26 3.62 18.83 10.85 25.68L196.7 351.75c6.87 7.23 15.43 10.84 25.7 10.84 10.1 0 18.76-3.62 26-10.85l185.85-185.87c7.04-7.04 10.57-15.6 10.57-25.7 0-9.9-3.52-18.55-10.57-25.98z"/></svg>