<svg xmlns="http://www.w3.org/2000/svg" width="175" height="175" viewBox="5.5 797.5 175 175" enable-background="new 5.5 797.5 175 175"><g xmlns:inkscape="http://www.inkscape.org/namespaces/inkscape" xmlns:dc="http://purl.org/dc/elements/1.1/" xmlns:svg="http://www.w3.org/2000/svg" xmlns:sodipodi="http://sodipodi.sourceforge.net/DTD/sodipodi-0.dtd" xmlns:rdf="http://www.w3.org/1999/02/22-rdf-syntax-ns#" xmlns:cc="http://creativecommons.org/ns#" sodipodi:docname="twitter_bootstrap_logo.svg" inkscape:version="0.48.1 r9760"><g><linearGradient id="a" x1="-64.999" x2="-64.999" y1="1381.5" y2="1206.5" gradientUnits="userSpaceOnUse" gradientTransform="translate(158 -409)"><stop offset="0" stop-color="#3BB1DC"/><stop offset="1" stop-color="#60F0FF"/></linearGradient><path fill="url(#a)" d="M151.33 799.22c7.3 0 14.2 2.86 19.4 8.06 5.2 5.2 8.05 12.1 8.05 19.4v116.65c0 7.3-2.86 14.2-8.06 19.4-5.2 5.2-12.1 8.05-19.4 8.05H34.68c-7.3 0-14.2-2.85-19.4-8.06-5.2-5.2-8.05-12.1-8.05-19.4V826.68c0-7.3 2.86-14.2 8.06-19.4 5.2-5.2 12.1-8.05 19.4-8.05h116.65m0-1.72H34.67c-16.05 0-29.17 13.13-29.17 29.17v116.66c0 16.05 13.13 29.17 29.17 29.17h116.66c16.04 0 29.17-13.12 29.17-29.17V826.67c0-16.04-13.13-29.17-29.17-29.17z"/></g><path fill="#3BB1DC" d="M53.05 835.53h49.62c9.14 0 16.5 2.1 22 6.3 5.53 4.2 8.3 10.5 8.3 19 0 5.15-1.25 9.56-3.77 13.22-2.5 3.66-6.1 6.52-10.8 8.52v.28c6.3 1.35 11.06 4.32 14.3 8.93 3.22 4.63 4.85 10.4 4.85 17.38 0 4-.7 7.75-2.14 11.2-1.42 3.5-3.66 6.5-6.72 9.02-3.06 2.5-6.94 4.52-11.72 6-4.77 1.5-10.44 2.23-17 2.23h-46.9V835.54zm17.88 42.75h29.16c4.28 0 7.86-1.2 10.72-3.66 2.86-2.46 4.28-5.95 4.28-10.52 0-5.15-1.28-8.78-3.85-10.87-2.58-2.08-6.3-3.14-11.16-3.14H70.92v28.18zm0 44.75h31.6c5.43 0 9.66-1.4 12.63-4.23 3-2.8 4.52-6.8 4.52-11.95 0-5.07-1.5-8.93-4.52-11.67-3.03-2.74-7.2-4.06-12.64-4.06h-31.6v31.9z" enable-background="new"/></g></svg>