<svg xmlns="http://www.w3.org/2000/svg" width="256" height="256" preserveAspectRatio="xMinYMin meet"><path fill="#DE4C36" d="M251.17 116.6L139.4 4.82c-6.43-6.44-16.87-6.44-23.3 0l-23.22 23.2 29.44 29.45c6.84-2.3 14.7-.76 20.14 4.7 5.48 5.48 7.02 13.4 4.65 20.26l28.4 28.38c6.85-2.37 14.77-.84 20.26 4.65 7.66 7.66 7.66 20.08 0 27.74-7.67 7.68-20.08 7.68-27.75 0-5.76-5.76-7.18-14.22-4.26-21.32L137.28 95.4v69.65c1.86.93 3.62 2.16 5.18 3.7 7.66 7.67 7.66 20.1 0 27.76-7.66 7.67-20.1 7.67-27.74 0-7.66-7.66-7.66-20.08 0-27.74 1.9-1.9 4.08-3.32 6.42-4.28V94.2c-2.34-.96-4.52-2.38-6.42-4.3-5.8-5.78-7.2-14.3-4.23-21.43L81.46 39.44 4.83 116.08c-6.44 6.44-6.44 16.88 0 23.32L116.6 251.17c6.44 6.43 16.88 6.43 23.32 0l111.25-111.25c6.44-6.44 6.44-16.9 0-23.33"/></svg>