<svg xmlns="http://www.w3.org/2000/svg" xmlns:xlink="http://www.w3.org/1999/xlink" viewBox="0 0 128 128"><defs><linearGradient id="a" x1=".98" x2="54.72" y1="-734.47" y2="-663.49" gradientTransform="matrix(1 0 0 -1 0 -648.86)" gradientUnits="userSpaceOnUse"><stop offset=".02" stop-color="#765af8"/><stop offset=".38" stop-color="#b345f1"/><stop offset=".76" stop-color="#fa3293"/><stop offset=".94" stop-color="#ff318c"/></linearGradient><linearGradient id="b" x1="4.93" x2="58.59" y1="-737.26" y2="-666.39" xlink:href="#a"/><linearGradient id="c" x1="92.98" x2="62.66" y1="-733.7" y2="-661.73" gradientTransform="matrix(1 0 0 -1 0 -648.86)" gradientUnits="userSpaceOnUse"><stop offset=".18" stop-color="#765af8"/><stop offset=".24" stop-color="#8655f6"/><stop offset=".34" stop-color="#9f4cf3"/><stop offset=".44" stop-color="#ae47f2"/><stop offset=".52" stop-color="#b345f1"/></linearGradient><linearGradient id="d" x1="115.65" x2="45.12" y1="-753.74" y2="-699.2" gradientTransform="matrix(1 0 0 -1 0 -648.86)" gradientUnits="userSpaceOnUse"><stop offset=".02" stop-color="#765af8"/><stop offset=".38" stop-color="#b345f1"/></linearGradient></defs><title>icon_PhpStorm</title><path fill="url(#a)" d="M72.4 27.8l-6-18.2L21.8 0 0 24.6l68 34.8 4.4-31.6z"/><path fill="url(#b)" d="M51.2 75.6l-1.4-38L0 24.6 12.2 98l39-.4v-22z"/><path fill="url(#c)" d="M40.4 75l2.4-30.2L79 7.6l32.4 6L128 55l-17.4 17.2-28.2-4.6L64.6 86 40.4 75z"/><path fill="url(#d)" d="M79 7.6L27 53.8 37 113l43.2 15L128 99.4 79 7.6z"/><path d="M24 24h80v80H24z"/><path fill="#fff" d="M31.6 89h30v5h-30zM31.2 34.4h13.6c8 0 12.8 4.6 12.8 11.4 0 7.6-6 11.6-13.4 11.6h-5.6v10h-7.4v-33zm13.2 17c3.5 0 5.8-2.4 5.8-5.2 0-3.2-2.2-5-6-5h-5.6v10.2h5.8zM59.4 62.8l4.4-5.2c3 2.4 6.2 4 10 4 3 0 4.8-1.2 4.8-3.2 0-1.8-1.2-2.8-6.8-4.2-6.8-1.8-11-3.6-11-10.2v-.2c0-6 4.8-10 11.6-10A20.15 20.15 0 0 1 84.8 38L81 43.6c-3-2-5.8-3.2-8.6-3.2s-4.2 1.2-4.2 3c0 2.2 1.4 3 7.2 4.4C82.2 49.6 86 52 86 57.8c0 6.6-5 10.4-12.2 10.4a21.14 21.14 0 0 1-14.4-5.4"/></svg>