<svg xmlns="http://www.w3.org/2000/svg" viewBox="0 0 504 504" enable-background="new 0 0 504 504"><circle cx="252" cy="252" r="252" fill="#FD8469"/><g fill="#2B3B4E"><path d="M208.1 430.4c0 4.8 3.9 8.6 8.6 8.6 4.8 0 8.6-3.9 8.6-8.6v-36.2h-17.2v36.2zM268.2 394.1v36.2c0 4.8 3.9 8.6 8.6 8.6 4.8 0 8.6-3.9 8.6-8.6v-36.2h-17.2z"/></g><path fill="#ACB3BA" d="M193.1 351.1h107.5v7.7H193.1z"/><path fill="#fff" d="M233.4 76.1C180.3 82 137.2 124.8 131 177.9c-4.7 40 10.9 76.6 37.8 100.8 12.7 11.5 20.6 27.1 23.3 43.9.1.5.1 1.1.2 1.6h109.3c.1-.5.1-1.1.2-1.6 2.7-16.9 10.9-32.6 23.7-44.3 23.4-21.3 38.1-52 38.1-86.2-.1-68.9-59.8-123.8-130.2-116z"/><g fill="#ACB3BA"><path d="M193.1 368.4h107.5v7.7H193.1zM193.1 387.9c0 3.5 2.8 6.3 6.3 6.3h95c3.5 0 6.3-2.8 6.3-6.3v-2.2H193.2l-.1 2.2zM300.6 333.8H193c0 .4.1.9.1 1.3v6.4h107.5v-6.4c-.1-.5 0-.9 0-1.3z"/></g><g fill="#324A5E"><path d="M301.4 324.2H192.1c.5 3.2.7 6.4.8 9.6h107.6c.2-3.3.5-6.5.9-9.6zM193.1 341.5h107.5v9.6H193.1zM193.1 358.8h107.5v9.6H193.1zM193.1 376.1h107.5v9.6H193.1z"/></g><path fill="#4CDBC4" d="M316.3 192.8v-27.4h-13.9c-1.4-5.7-3.6-11.1-6.6-16l9.8-9.8-19.3-19.3-9.8 9.8c-4.9-3-10.3-5.2-16-6.6v-13.9h-27.4v13.9c-5.7 1.4-11.1 3.6-16 6.6l-9.8-9.8-19.3 19.4 9.8 9.8c-3 4.9-5.2 10.3-6.6 16h-13.9v27.4h13.9c1.4 5.7 3.6 11.1 6.6 16l-9.8 9.8 19.3 19.3 9.8-9.8c4.9 3 10.3 5.2 16 6.6v89.4h27.4v-89.4c5.7-1.4 11.1-3.6 16-6.6l9.8 9.8 19.3-19.3-9.8-9.8c3-4.9 5.2-10.3 6.6-16l13.9-.1zm-69.5 25.7c-21.7 0-39.3-17.6-39.3-39.3s17.6-39.3 39.3-39.3 39.3 17.6 39.3 39.3-17.6 39.3-39.3 39.3z"/></svg>