<svg xmlns="http://www.w3.org/2000/svg" viewBox="0 0 128 128"><path fill="#0074BD" d="M47.62 98.12s-4.77 2.77 3.4 3.7c9.9 1.14 14.94.98 25.84-1.08 0 0 2.87 1.8 6.87 3.35-24.44 10.46-55.3-.62-36.1-5.98zm-3-13.67s-5.34 3.96 2.83 4.8c10.57 1.1 18.9 1.2 33.36-1.6 0 0 2 2.03 5.14 3.14-29.54 8.63-62.45.67-41.3-6.35z"/><path fill="#EA2D2E" d="M69.8 61.27c6.03 6.94-1.58 13.17-1.58 13.17s15.3-7.9 8.27-17.78c-6.57-9.2-11.6-13.8 15.63-29.58 0 0-42.73 10.67-22.33 34.2z"/><path fill="#0074BD" d="M102.12 108.23s3.53 2.9-3.88 5.16c-14.1 4.26-58.7 5.55-71.1.16-4.45-1.94 3.9-4.63 6.53-5.2 2.74-.6 4.3-.48 4.3-.48-4.95-3.48-32 6.85-13.74 9.82 49.82 8.07 90.8-3.64 77.9-9.47zM49.92 70.3s-22.7 5.38-8.04 7.34c6.2.83 18.52.64 30-.32 9.4-.8 18.82-2.48 18.82-2.48s-3.3 1.42-5.7 3.05c-23.04 6.06-67.54 3.23-54.73-2.96C41.1 69.7 49.9 70.3 49.9 70.3zm40.7 22.74c23.4-12.17 12.58-23.86 5.02-22.28-1.85.38-2.68.72-2.68.72s.7-1.08 2-1.55c14.96-5.25 26.45 15.5-4.82 23.73 0 0 .36-.33.47-.62z"/><path fill="#EA2D2E" d="M76.5 1.6s12.96 12.96-12.3 32.9c-20.28 16.02-4.63 25.14-.02 35.57C52.35 59.4 43.68 50 49.48 41.25c8.56-12.83 32.24-19.05 27-39.66z"/><path fill="#0074BD" d="M52.2 126.02c22.5 1.44 57-.8 57.83-11.43 0 0-1.57 4.02-18.58 7.22-19.18 3.6-42.85 3.2-56.88.87 0 0 2.87 2.37 17.64 3.32z"/></svg>