<svg xmlns="http://www.w3.org/2000/svg" viewBox="0 0 128 128"><path fill="#439934" fill-rule="evenodd" d="M88.04 42.8c1.6 4.66 2.76 9.4 3.14 14.3.47 6.1.25 12.15-1.03 18.15-.04.17-.1.32-.16.48-.42 0-.83-.05-1.22 0-3.33.54-6.66 1.08-9.98 1.62-3.44.55-6.88 1.1-10.32 1.68-1.2.2-2.72-.04-3.2 1.64-.02.05-.16.06-.24.08l.16-10.05c-.05-8.08-.1-16.16-.17-24.25l1.6-.27c2.63-.43 5.25-.87 7.87-1.28 3.13-.5 6.26-.98 9.4-1.47 1.37-.2 2.75-.4 4.14-.62z" clip-rule="evenodd"/><path fill="#45A538" fill-rule="evenodd" d="M61.73 110.05c-1.7-1.45-3.44-2.84-5.06-4.37-8.72-8.22-15.1-17.9-18.23-29.56-.87-3.2-1.45-6.48-1.63-9.8-.12-2.32-.3-4.66-.14-6.97.43-6.14 1.32-12.23 3.12-18.15l.1-.13c.18.23.43.43.52.7 1.76 5.18 3.5 10.36 5.24 15.55 5.46 16.3 10.9 32.6 16.38 48.9.1.32.38.58.58.86l-.87 2.97z" clip-rule="evenodd"/><path fill="#46A037" fill-rule="evenodd" d="M88.04 42.8c-1.4.22-2.77.42-4.15.63-3.14.48-6.27.97-9.4 1.46-2.63.4-5.25.85-7.87 1.27l-1.6.28V45.4c-.06-.86-.15-1.7-.16-2.57-.07-5.48-.12-10.96-.18-16.44-.06-3.44-.12-6.86-.2-10.3-.03-2.12-.08-4.25-.17-6.38-.06-1.14-.24-2.28-.3-3.42-.06-.66 0-1.32 0-1.98.83 1.58 1.63 3.18 2.47 4.75 1.33 2.48 3.44 4.3 5.34 6.3 7.53 7.9 12.87 17.08 16.2 27.44z" clip-rule="evenodd"/><path fill="#409433" fill-rule="evenodd" d="M65.04 80.75c.08-.02.22-.03.23-.08.5-1.68 2-1.43 3.2-1.64 3.45-.6 6.9-1.13 10.33-1.7 3.32-.52 6.65-1.07 9.98-1.6.4-.05.8 0 1.2 0-.62 2.22-1.1 4.5-1.9 6.65-.9 2.45-1.98 4.84-3.13 7.18-1.72 3.5-3.86 6.77-6.35 9.76-1.92 2.3-4.06 4.44-6.2 6.55-1.2 1.16-2.58 2.1-3.88 3.16l-.34-.23-1.22-1.04-1.25-2.75c-.86-3.2-1.3-6.5-1.38-9.83l.02-.56.17-2.42c.07-.82.14-1.65.18-2.48.13-2.98.24-5.96.36-8.95z" clip-rule="evenodd"/><path fill="#4FAA41" fill-rule="evenodd" d="M65.04 80.75c-.12 3-.23 5.97-.36 8.95-.04.83-.1 1.66-.17 2.48l-.75.3c-1.7-5-3.4-9.96-5.07-14.92-2.75-8.2-5.46-16.43-8.2-24.64-2.23-6.63-4.46-13.25-6.7-19.87-.1-.3-.42-.55-.63-.82l4.9-9c.17.3.4.56.5.87 2.26 6.7 4.52 13.4 6.76 20.12 2.93 8.73 5.83 17.47 8.74 26.2.12.35.3.67.5 1.06l.66-.78c-.05 3.35-.1 6.7-.16 10.05z" clip-rule="evenodd"/><path fill="#4AA73C" fill-rule="evenodd" d="M43.16 32.23c.2.27.5.5.6.82 2.26 6.62 4.5 13.24 6.7 19.87 2.76 8.2 5.48 16.43 8.22 24.64 1.67 4.96 3.37 9.9 5.07 14.9l.76-.27-.16 2.4-.15.57c-.28 2.66-.5 5.32-.83 7.97-.16 1.33-.5 2.63-.77 3.95-.2-.3-.48-.56-.58-.88-5.47-16.3-10.92-32.6-16.38-48.9-1.74-5.2-3.48-10.37-5.24-15.55-.1-.26-.34-.47-.52-.7 1.1-2.95 2.18-5.9 3.27-8.84z" clip-rule="evenodd"/><path fill="#57AE47" fill-rule="evenodd" d="M65.2 70.7l-.67.78c-.18-.4-.37-.7-.5-1.06-2.9-8.73-5.8-17.47-8.72-26.2-2.23-6.7-4.5-13.4-6.76-20.12-.1-.3-.32-.58-.5-.87l6.06-7.97c.2.26.47.48.57.77 1.68 4.92 3.34 9.85 5 14.78 1.55 4.6 3.07 9.22 4.63 13.82.1.3.47.53.72.8v1.03c.07 8.08.13 16.17.18 24.25z" clip-rule="evenodd"/><path fill="#60B24F" fill-rule="evenodd" d="M65.02 45.4c-.24-.26-.6-.47-.7-.78-1.58-4.6-3.1-9.2-4.65-13.8-1.66-4.95-3.32-9.87-5-14.8-.1-.28-.37-.5-.56-.76 1.98-1.93 3.88-3.93 5.93-5.77 1.82-1.64 3.3-3.4 3.35-5.97 0-.1.06-.22.15-.52l.52 1.32c-.02.66-.08 1.32-.03 1.98.07 1.14.26 2.28.3 3.42.1 2.13.15 4.26.2 6.4.06 3.42.13 6.84.17 10.27.06 5.47.1 10.95.17 16.43 0 .86.1 1.7.15 2.57z" clip-rule="evenodd"/><path fill="#A9AA88" fill-rule="evenodd" d="M62.6 107.08c.26-1.3.6-2.62.77-3.94.33-2.65.55-5.3.8-7.97H64.33c.07 3.33.53 6.62 1.4 9.84-.2.24-.43.45-.53.7-.73 2.06-1.42 4.13-2.15 6.18-.1.28-.38.5-.57.74l-.75-2.57.87-2.97z" clip-rule="evenodd"/><path fill="#B6B598" fill-rule="evenodd" d="M62.48 112.62c.2-.25.47-.46.57-.74.73-2.05 1.42-4.12 2.14-6.17.1-.25.33-.46.5-.7l1.27 2.76c-.25.36-.6.67-.73 1.07l-2.4 7.05c-.1.3-.44.5-.67.73l-.7-3.98z" clip-rule="evenodd"/><path fill="#C2C1A7" fill-rule="evenodd" d="M63.17 116.6c.23-.23.56-.43.66-.72l2.4-7.06c.14-.4.5-.7.74-1.06l1.2 1.04c-.58.58-.9 1.25-.7 2.1l-.38 1.2c-.17.2-.42.4-.5.63-.84 2.4-1.64 4.82-2.48 7.22-.1.3-.4.54-.62.8-.1-1.37-.22-2.76-.33-4.15z" clip-rule="evenodd"/><path fill="#CECDB7" fill-rule="evenodd" d="M63.5 120.76c.2-.27.5-.5.62-.8.84-2.4 1.64-4.83 2.48-7.23.1-.24.33-.42.5-.62l-.5 5.55c-.15.16-.35.3-.4.48-.6 1.6-1.13 3.24-1.7 4.85-.12.33-.35.63-.53.94-.16-.2-.44-.4-.45-.62-.05-.84-.02-1.7-.02-2.54z" clip-rule="evenodd"/><path fill="#DBDAC7" fill-rule="evenodd" d="M63.97 123.92c.18-.3.4-.6.52-.94.57-1.6 1.1-3.24 1.7-4.85.05-.2.25-.32.4-.48v3.64l-1.22 3.1-1.4-.48z" clip-rule="evenodd"/><path fill="#EBE9DC" fill-rule="evenodd" d="M65.38 124.42l1.22-3.13.25 3.7-1.47-.58z" clip-rule="evenodd"/><path fill="#CECDB7" fill-rule="evenodd" d="M67.46 110.9c-.2-.85.13-1.52.72-2.1l.34.23-1.06 1.87z" clip-rule="evenodd"/><path fill="#4FAA41" fill-rule="evenodd" d="M64.32 95.17h-.14l.16-.56-.02.57z" clip-rule="evenodd"/></svg>