<svg xmlns="http://www.w3.org/2000/svg" viewBox="0 0 512 512" enable-background="new 0 0 512 512"><path fill="#FFD24D" d="M401.55 243.4H264.4v-65.56h-16.8v65.57H110.46c-4.63 0-8.4 3.77-8.4 8.4v73.96h16.8V260.2h274.3v65.56h16.8V251.8c0-4.63-3.76-8.4-8.4-8.4z"/><path fill="#8B7E7F" d="M221.44 132.02h69.13v57h-69.13z"/><path fill="#C2B8B9" d="M314.6 197.43H197.4c-4.63 0-8.38-3.76-8.38-8.4 0-4.63 3.75-8.4 8.4-8.4h117.17c4.63 0 8.38 3.77 8.38 8.4 0 4.64-3.75 8.4-8.4 8.4z"/><path fill="#463836" d="M362.28 121.72c0 11.87-9.62 21.5-21.5 21.5H171.22c-11.86 0-21.48-9.63-21.48-21.5V21.5c0-11.88 9.62-21.5 21.5-21.5h169.57c11.86 0 21.48 9.62 21.48 21.5v100.22z"/><path fill="#8B7E7F" d="M366.98 446.6h69.13v57H367z"/><path fill="#C2B8B9" d="M460.14 512H342.96c-4.64 0-8.4-3.76-8.4-8.4 0-4.63 3.76-8.4 8.4-8.4h117.18c4.64 0 8.4 3.77 8.4 8.4 0 4.64-3.76 8.4-8.4 8.4z"/><path fill="#463836" d="M507.83 436.3c0 11.87-9.62 21.5-21.5 21.5H316.77c-11.87 0-21.5-9.63-21.5-21.5V336.06c0-11.87 9.63-21.5 21.5-21.5h169.58c11.87 0 21.5 9.63 21.5 21.5V436.3z"/><path fill="#8B7E7F" d="M75.9 446.6H145v57H75.9z"/><path fill="#C2B8B9" d="M169.04 512H51.86c-4.64 0-8.4-3.76-8.4-8.4 0-4.63 3.76-8.4 8.4-8.4h117.18c4.64 0 8.4 3.77 8.4 8.4 0 4.64-3.76 8.4-8.4 8.4z"/><path fill="#463836" d="M216.73 436.3c0 11.87-9.62 21.5-21.5 21.5H25.67c-11.87 0-21.5-9.63-21.5-21.5V336.06c0-11.87 9.63-21.5 21.5-21.5h169.58c11.87 0 21.5 9.63 21.5 21.5V436.3z"/></svg>