<svg xmlns="http://www.w3.org/2000/svg" viewBox="0 0 504 504" enable-background="new 0 0 504 504"><circle cx="252" cy="252" r="252" fill="#FFD05B"/><path fill="#2B3B4E" d="M94.5 352.6l12.8 37.8h289.4l12.8-37.8z"/><path fill="#324A5E" d="M381.4 113.6H122.6c-6.8 0-12.4 5.4-12.4 12v200.9c0 6.6 5.5 12 12.4 12h258.7c6.8 0 12.4-5.4 12.4-12V125.6c.1-6.6-5.5-12-12.3-12z"/><g fill="#fff"><path d="M137.8 140.9h228.4v170.3H137.8zM274.3 364.3h-44.6c-2.3 0-4.1 1.8-4.1 4.1s1.8 4.1 4.1 4.1h44.6c2.3 0 4.1-1.8 4.1-4.1s-1.8-4.1-4.1-4.1z"/></g><path fill="#CED5E0" d="M171.6 150.1h160.7v151.8H171.6z"/><g fill="#324A5E"><path d="M236.8 292l-4-10.1h-18.1l-4 10.1h-10.3l18.7-46.7h9.4l18.7 46.7h-10.4zm-13.1-32.8l-5.5 13.6H229l-5.3-13.6zM281.9 249.5c3 2.8 4.5 7.1 4.5 12.8 0 5.8-1.6 10-4.7 12.7s-7.9 4-14.3 4h-5.8v13h-9.7v-46.7h15.3c6.8 0 11.7 1.4 14.7 4.2zm-7.1 18.3c1.2-1.4 1.7-3.4 1.7-6.1s-.8-4.6-2.3-5.7-3.9-1.7-7-1.7h-5.5V270h6.5c3.3-.1 5.5-.8 6.6-2.2zM294 245.3h9.7V292H294v-46.7z"/></g><circle cx="298.2" cy="163" r="4.9" fill="#2C9984"/><circle cx="315.6" cy="163" r="4.9" fill="#F1543F"/><path fill="#324A5E" d="M183.4 158h101.8v9.9H183.4z"/><path fill="#FF7058" d="M183.4 184.6h60.2v28.1h-60.2z"/><g fill="#ACB3BA"><path d="M183.4 219.6h60.2v4.2h-60.2zM183.4 230.7h60.2v4.2h-60.2z"/></g><path fill="#4CDBC4" d="M260.4 184.6h60.2v28.1h-60.2z"/><g fill="#ACB3BA"><path d="M260.4 219.6h60.2v4.2h-60.2zM260.4 230.7h60.2v4.2h-60.2z"/></g></svg>