<svg xmlns="http://www.w3.org/2000/svg" viewBox="0 0 512 512" enable-background="new 0 0 512 512"><radialGradient id="a" cx="256" cy="258" r="256" gradientTransform="matrix(1 0 0 -1 0 514)" gradientUnits="userSpaceOnUse"><stop offset=".005" stop-color="#95A5A6"/><stop offset="1" stop-color="#7F8C8D"/></radialGradient><circle cx="256" cy="256" r="256" fill="url(#a)"/><path fill="#95A5A6" d="M307.5 399h-103l-10-17h123z"/><path fill="#BDC3C7" d="M204 399h103v13H204z"/><path fill="#ECF0F1" d="M337.5 441h-163l30-29h103z"/><path fill="#BDC3C7" d="M174 441v10c0 3.3 2.7 6 6 6h151c3.3 0 6-2.7 6-6v-10H174z"/><path fill="#1C99D8" d="M84 135h342v196H84z"/><path fill="#2B3E51" d="M432 119H80c-5.5 0-10 4-10 9.5V345h372V128.5c0-5.5-4.5-9.5-10-9.5zm-6 212H84V135h342v196z"/><path fill="#ECF0F1" d="M70 345v27.5c0 5.5 4.5 10.5 10 10.5h352c5.5 0 10-5 10-10.5V345H70z"/><circle cx="256" cy="364" r="8" fill="#33495F"/><path fill="#F4C342" d="M401.48 57H393v274h10V58.37c0-.92-.4-1.37-1.52-1.37z"/><path fill="#F89B36" d="M350.5 57c-1.12 0-2.5.57-2.5 1.7V331h45V57h-42.5z"/><path fill="#F4C342" d="M377.25 65c-1.13 0-2.02.87-2.02 2s.94 2 2.07 2H393v-4h-15.75z"/><path fill="#F4CC64" d="M393 65h10v4h-10z"/><path fill="#F4C342" d="M377.3 116c-1.13 0-2.05.87-2.05 2s.92 2 2.05 2H393v-4h-15.7z"/><path fill="#F4CC64" d="M393 116h10v4h-10z"/><path fill="#F4C342" d="M377.3 167c-1.13 0-2.05.87-2.05 2s.92 2 2.05 2H393v-4h-15.7z"/><path fill="#F4CC64" d="M393 167h10v4h-10z"/><path fill="#F4C342" d="M385.5 77c-1.14 0-2.05 1.37-2.05 2.5s.92 2.5 2.05 2.5h7.5v-5h-7.5z"/><path fill="#F4CC64" d="M393 77h10v5h-10z"/><path fill="#F4C342" d="M385.5 91c-1.14 0-2.05.37-2.05 1.5s.92 1.5 2.05 1.5h7.5v-3h-7.5z"/><path fill="#F4CC64" d="M393 91h10v3h-10z"/><path fill="#F4C342" d="M385.5 103c-1.14 0-2.05.87-2.05 2s.92 2 2.05 2h7.5v-4h-7.5z"/><path fill="#F4CC64" d="M393 103h10v4h-10z"/><path fill="#F4C342" d="M385.5 129c-1.14 0-2.05.87-2.05 2s.92 2 2.05 2h7.5v-4h-7.5z"/><path fill="#F4CC64" d="M393 129h10v4h-10z"/><path fill="#F4C342" d="M385.5 142c-1.14 0-2.05.87-2.05 2s.92 2 2.05 2h7.5v-4h-7.5z"/><path fill="#F4CC64" d="M393 142h10v4h-10z"/><path fill="#F4C342" d="M385.5 155c-1.14 0-2.05.37-2.05 1.5s.92 1.5 2.05 1.5h7.5v-3h-7.5z"/><path fill="#F4CC64" d="M393 155h10v3h-10z"/><path fill="#F4C342" d="M385.5 180c-1.14 0-2.05 1.37-2.05 2.5s.92 2.5 2.05 2.5h7.5v-5h-7.5z"/><path fill="#F4CC64" d="M393 180h10v5h-10z"/><path fill="#F4C342" d="M385.5 193c-1.14 0-2.05.87-2.05 2s.92 2 2.05 2h7.5v-4h-7.5z"/><path fill="#F4CC64" d="M393 193h10v4h-10z"/><path fill="#F4C342" d="M385.5 205c-1.14 0-2.05 1.37-2.05 2.5s.92 2.5 2.05 2.5h7.5v-5h-7.5z"/><path fill="#F4CC64" d="M393 205h10v5h-10z"/><path fill="#F4C342" d="M377.3 218c-1.13 0-2.05.87-2.05 2s.57 2.03 1.7 2.03L393 222v-4h-15.7z"/><path fill="#F4CC64" d="M393 218h10v4h-10z"/><path fill="#F4C342" d="M377.25 232c-1.13 0-2.02 1.37-2.02 2.5s.94 2.5 2.07 2.5H393v-5h-15.75z"/><path fill="#F4CC64" d="M393 232h10v5h-10z"/><path fill="#F4C342" d="M377.3 283c-1.13 0-2.05.87-2.05 2s.92 2 2.05 2H393v-4h-15.7z"/><path fill="#F4CC64" d="M393 283h10v4h-10z"/><path fill="#F4C342" d="M385.5 245c-1.14 0-2.05.87-2.05 2s.92 2 2.05 2h7.5v-4h-7.5z"/><path fill="#F4CC64" d="M393 245h10v4h-10z"/><path fill="#F4C342" d="M385.5 258c-1.14 0-2.05.87-2.05 2s.92 2 2.05 2h7.5v-4h-7.5z"/><path fill="#F4CC64" d="M393 258h10v4h-10z"/><path fill="#F4C342" d="M385.5 271c-1.14 0-2.05.37-2.05 1.5s.92 1.5 2.05 1.5h7.5v-3h-7.5z"/><path fill="#F4CC64" d="M393 271h10v3h-10z"/><path fill="#F4C342" d="M385.5 296c-1.14 0-2.05 1.37-2.05 2.5s.92 2.5 2.05 2.5h7.5v-5h-7.5z"/><path fill="#F4CC64" d="M393 296h10v5h-10z"/><path fill="#F4C342" d="M385.5 309c-1.14 0-2.05.87-2.05 2s.92 2 2.05 2h7.5v-4h-7.5z"/><path fill="#F4CC64" d="M393 309h10v4h-10z"/><path fill="#F4C342" d="M385.5 322c-1.14 0-2.05.87-2.05 2s.92 2 2.05 2h7.5v-4h-7.5z"/><path fill="#F4CC64" d="M393 322h10v4h-10z"/><path fill="#EE483C" d="M321 178.74V165h.5c-.03 0-.03 0-.03 0s0 0 .03 0h-.5v-.23c-10-.03-12.34-2.27-13.46-3.18-.28-.24-.54-.38-.54-.38V331h14V178.74z"/><path fill="#C6362B" d="M334.3 161.73c-1.07.93-4.3 2.27-13.3 2.27v167h14V161.22s-.4.27-.7.5z"/><path fill="#EC7C2D" d="M321.5 165z"/><path fill="#32495D" d="M106 92h183v239H106z"/><path fill="#2B3E51" d="M106 92h183v25H106z"/><path fill="#ECF0F1" d="M113 135h105v7H113z"/><path fill="#F4C342" d="M113 153h68v7h-68zM185 170h63v7h-63z"/><path fill="#ECF0F1" d="M156 212h38v7h-38z"/><path fill="#EE483C" d="M200 212h38v7h-38zM113 254h68v7h-68z"/><path fill="#F4C342" d="M185 271h63v7h-63zM113 290h63v7h-63z"/><path fill="#ECF0F1" d="M185 290h63v7h-63z"/><g fill="#2B3E51"><path d="M190 153h68v7h-68zM113 170h63v7h-63zM113 189h63v7h-63zM185 189h63v7h-63zM113 212h38v7h-38zM243 212h38v7h-38zM113 236h105v7H113zM190 254h68v7h-68zM113 271h63v7h-63zM113 313h38v7h-38zM156 313h38v7h-38zM200 313h38v7h-38z"/></g><path fill="#ECF0F1" d="M243 313h38v7h-38z"/><g fill="#32495D"><path d="M321.43 135.56c-.14-.25-.6-.05-.6-.05-.18 0-.3 0-.38 0 0 0 0 .03 0 .06l-5.2 9.44h11.58l-5.4-9.44zM320.45 135.5c-.02-.12-.34-.05 0 0z"/></g><path fill="#2A3E4F" d="M326.83 145l-5.4-9.44c-.14-.25-.6-.05-.6-.05v9.5h6z"/><path fill="#F4C342" d="M334.76 160l-7.93-15h-11.58l-7.96 15c-.2.35-.32 1-.2 1.43 1.17.9 3.36 3.3 13.73 3.34 0 0 .2 0 .25 0 8.9 0 12.6-2.23 13.73-3.16.15-.4.16-1.25-.04-1.6z"/><path fill="#F89B36" d="M320.83 164.77s.2 0 .24 0c8.92 0 12.6-2.23 13.73-3.15.15-.43.16-1.27-.04-1.63l-7.93-15h-6v19.77z"/></svg>