<svg xmlns="http://www.w3.org/2000/svg" viewBox="0 0 512 512" enable-background="new 0 0 512 512"><path fill="#FFCA4F" d="M256 512c141 0 256-115 256-256S397 0 256 0 0 115 0 256s115 256 256 256z"/><path fill="#20D0C2" d="M175.23 145.67h223.5l50.72 223.87-18.58.1-.44 79.03 19.14.1-.12 13.2H147.33c-28.6-2.2-26.04-53.04-27.57-66.64l25.45-227.57c.1-10.1 10.63-22.1 30.04-22.1z"/><path fill="#1A91A1" d="M175.23 145.67h21.4l-19.47 316.3h-29.83c-35.04-3.97-36.38-59.7-25-89.65l22.88-204.57c.1-10.1 10.63-22.08 30.03-22.08z"/><path fill="#fff" d="M151.22 369.5h292.43c-13.27 27.12-12.93 53.86 0 80.24H151.22c-31.37 0-31.37-80.23 0-80.23z"/><path fill="#ECF0F1" d="M129.95 391.57h305.87c-.18.8-.34 1.6-.5 2.4H129.38c.18-.8.37-1.6.58-2.4zM434.4 400c-.1.8-.18 1.6-.25 2.42H128.02c.08-.8.17-1.6.28-2.4h306.1zm-.56 8.45c0 .8 0 1.6 0 2.4H127.7c0-.8 0-1.6 0-2.4h306.14zm.3 8.44c.08.8.16 1.6.26 2.4H128.3c-.1-.8-.18-1.6-.26-2.42h306.1zm1.2 8.43c.15.8.3 1.6.5 2.4H129.96c-.2-.8-.4-1.6-.6-2.4h305.97zm2.04 8.44c.24.8.5 1.6.75 2.4H133.06c-.38-.77-.73-1.58-1.07-2.4h305.38zm2.93 8.44c.33.8.66 1.6 1 2.42H138.96c-.77-.74-1.5-1.55-2.18-2.4H440.3z"/><path fill="#FF5B61" d="M240.17 410.62h45.7V512l-23.04-33.08L240.18 512V410.6z"/><path fill="#fff" d="M98.95 287.52l309.8-110.82c34.7-2.88 45.1 67.72 22.34 74.38l-302.7 113.6c-17.18 6.48-34-21.16-35.5-48.26-.8-14.4 3.13-13.96 19.53-20.4l-13.48-8.5z"/><path fill="#ECF0F1" d="M440.83 240.52c-1.97 5.34-5.2 9.23-9.74 10.56l-302.7 113.6c-5.26 2-10.48.77-15.25-2.65 8.6.86 13.3-.3 21.46-8l306.23-113.5z"/><path fill="#FFBA1B" d="M302.27 214.82c23 3.32 39.45 57.95 27.95 74.12l-41.83 15.7c7.58-25.62-8.96-68.32-31.94-73.4l45.8-16.42z"/><path fill="#F5A209" d="M376.38 325.37l-46.16-36.43-41.83 15.7 34.92 40.6 16.13-24.12 36.93 4.25z"/><g fill="#ECF0F1"><path d="M110.4 296.88l2.03-.85c12.65 2.56 34.83 47.9 10.52 57.96-17.3 7.15-25.34-30.36-24.7-42.8 7.4-5.3 15.4 17.1 12.84 17.6l-5.14 1.02s.15 9.8 5.13 10.48l19.84-6.43s-1.6-28.9-20.53-37zM181.8 386.33h255.34c1.58-5.57 3.74-11.16 6.48-16.76 0-.02.02-.04.03-.06H151.2c-29 0-31.18 68.72-6.5 78.97-8.35-23.66-1.67-62.14 20.06-62.14h17.05z"/></g><path fill="#666" d="M279.23 136.17l2.5 43.95c-14.28 24.22-59.9 42.2-104.8 41.74-42.8-.43-85.02-18.2-96.63-40.55l-.24-43.05 95.62 26.4 103.55-28.47z"/><path fill="#807D7D" d="M21.07 120.88l154.6-52.23 154.63 52.23-154.62 52.23-154.6-52.22z"/><path fill="#FF5B61" d="M76.03 227.8l-7.08 45.34c-.1.74 2.37 1.74 3.56.27 1.57 1.88 3.64 1.1 4.26-.18.8 1.28 2.63 2 3.97.07 1.2 1.47 3.85.44 3.65-.8l-7.03-44.73c-.18-.67-1.23-.55-1.32.04z"/><g fill="#fff"><path d="M176.74 107.65c.93-.27 1.92.26 2.2 1.2.27.93-.26 1.9-1.2 2.2l-99.44 29.9v86.7c0 .98-.8 1.77-1.76 1.77s-1.77-.8-1.77-1.77v-88.03c0-.76.5-1.46 1.26-1.7l100.7-30.27zM76.67 233.58c3.86 0 7-3.16 7-7.02s-3.14-7.02-7-7.02c-3.87 0-7.02 3.16-7.02 7.02 0 3.87 3.15 7.02 7.02 7.02z"/></g><path fill="#ECF0F1" d="M82.36 224.77c0 2.94-1.87 5.44-4.48 6.38-.72.25-1.5.4-2.3.4-.04 0-.1 0-.13 0-2.3-.05-4.34-1.25-5.53-3.05.7 2.46 2.72 4.36 5.24 4.92.48.1 1 .16 1.5.16.54 0 1.07-.06 1.57-.18 3.13-.7 5.46-3.5 5.46-6.84 0-2-.85-3.8-2.2-5.1.55 1 .86 2.1.86 3.3z"/></svg>