<svg xmlns="http://www.w3.org/2000/svg" width="256" height="256" preserveAspectRatio="xMidYMid"><path fill="#264970" d="M134.74 243.12V220.9l55.52-28.13c1.33-.68 2.17-2.04 2.17-3.54V176.5c5.2-1.8 8.66-6.96 8.07-12.65-.68-6.64-6.62-11.48-13.27-10.8-6.64.7-11.47 6.63-10.8 13.28.5 4.83 3.78 8.7 8.08 10.18v10.3L134.75 212v-20.67l21.94-10.15c1.4-.64 2.3-2.04 2.3-3.58l.04-34.45 40.6-22.8c1.25-.7 2.02-2.03 2.02-3.46v-9.62c5.2-1.8 8.66-6.96 8.07-12.66-.67-6.64-6.6-11.48-13.25-10.8-6.65.7-11.48 6.64-10.8 13.3.5 4.8 3.78 8.67 8.08 10.16v7.3l-40.6 22.8c-1.25.7-2.02 2.02-2.02 3.45l-.03 34.23-16.33 7.55v-74.43l34.16-16.7c1.36-.66 2.22-2.04 2.22-3.55V75.2c5.2-1.8 8.66-6.97 8.07-12.67-.7-6.64-6.64-11.47-13.28-10.78-6.64.68-11.47 6.62-10.8 13.27.5 4.82 3.78 8.67 8.08 10.17v10.25l-28.46 13.9V56.4c5.2-1.8 8.66-6.97 8.08-12.66-.7-6.64-6.63-11.47-13.28-10.8-6.64.7-11.47 6.64-10.78 13.28.5 4.82 3.77 8.68 8.07 10.17v70.1l-20.12-10.58V84.05c0-1.23-.56-2.4-1.54-3.14L91.4 70.38c.75-1.8 1.07-3.8.86-5.88-.7-6.64-6.63-11.47-13.28-10.8-6.64.7-11.47 6.64-10.78 13.28.68 6.65 6.62 11.48 13.27 10.8 1.7-.18 3.25-.7 4.65-1.48L98.8 86v32.28c0 1.48.8 2.83 2.1 3.5l25.93 13.62v25.75l-43.24-20 .58-15.66c.06-1.55-.78-2.98-2.15-3.68L62.2 111.65c.3-1.27.42-2.6.28-4-.7-6.63-6.63-11.46-13.27-10.77-6.64.68-11.47 6.62-10.78 13.27.68 6.64 6.62 11.47 13.27 10.78 2.37-.24 4.5-1.17 6.26-2.56l18.2 9.34-.58 15.8c-.06 1.58.84 3.06 2.3 3.73l48.95 22.64v18.38c-.05.34-.05.7 0 1.04v54c-4.17-.05-8.28-.3-12.33-.8v-46.4c0-1.55-.9-2.96-2.3-3.6l-30.72-14.14c.07-.8.08-1.6 0-2.42-.7-6.64-6.63-11.47-13.28-10.78-6.64.68-11.47 6.62-10.8 13.27.7 6.64 6.64 11.47 13.28 10.78 2.97-.3 5.57-1.65 7.48-3.65l28.42 13.08v42.67c-53.4-10.07-93.9-57.03-93.9-113.3C12.67 64.4 64.4 12.67 128 12.67c63.6 0 115.33 51.74 115.33 115.33 0 61.33-48.12 111.6-108.6 115.12zM128 0C57.42 0 0 57.42 0 128s57.42 128 128 128 128-57.42 128-128S198.58 0 128 0z"/></svg>