<svg xmlns="http://www.w3.org/2000/svg" viewBox="0 0 512 512" enable-background="new 0 0 512 512"><g fill="#BDC3C7"><path d="M132.4 132.4h-8.8c-4.9 0-8.84-3.93-8.84-8.8s3.95-8.84 8.83-8.84h8.8c4.9 0 8.84 3.94 8.84 8.83s-3.95 8.8-8.83 8.8M132.4 167.72h-8.8c-4.9 0-8.84-3.94-8.84-8.82 0-4.9 3.95-8.83 8.83-8.83h8.8c4.9 0 8.84 3.94 8.84 8.83 0 4.88-3.95 8.82-8.83 8.82M132.4 88.28h-8.8c-4.9 0-8.84-3.95-8.84-8.83s3.95-8.83 8.83-8.83h8.8c4.9 0 8.84 3.95 8.84 8.83s-3.95 8.83-8.83 8.83"/></g><path fill="#485762" d="M361.93 494.35h-194.2c-19.5 0-35.32-15.8-35.32-35.31V52.97c0-19.5 15.82-35.3 35.32-35.3h194.2c19.5 0 35.32 15.8 35.32 35.3v406.07c0 19.5-15.8 35.3-35.3 35.3"/><g fill="#ECF1F1"><path d="M361.93 512h-194.2c-19.5 0-35.32-15.8-35.32-35.3V423.7h264.84v52.97c0 19.5-15.8 35.3-35.3 35.3"/><path d="M397.24 70.62H132.4v-35.3C132.4 15.8 148.23 0 167.73 0h194.2c19.5 0 35.32 15.8 35.32 35.3v35.32z"/></g><g fill="#BDC3C7"><path d="M282.48 467.86c0 9.76-7.9 17.66-17.65 17.66-9.76 0-17.66-7.9-17.66-17.66s7.9-17.65 17.66-17.65c9.75 0 17.65 7.9 17.65 17.66M282.48 44.14h-35.3c-4.88 0-8.84-3.95-8.84-8.83s3.96-8.82 8.83-8.82h35.3c4.9 0 8.84 3.95 8.84 8.83s-3.94 8.84-8.82 8.84M220.7 35.3c0 4.88-3.96 8.84-8.84 8.84-4.87 0-8.83-3.96-8.83-8.83s3.96-8.82 8.83-8.82c4.88 0 8.83 3.96 8.83 8.83"/></g><path fill="#8697CB" d="M176.55 176.55H353.1v-61.8H176.55z"/><path fill="#4FBA6F" d="M256 238.34h-79.45c-4.87 0-8.83-3.94-8.83-8.82s3.96-8.83 8.83-8.83H256c4.87 0 8.83 3.94 8.83 8.82s-3.96 8.82-8.83 8.82"/><path fill="#E64C3C" d="M353.1 238.34h-44.14c-4.87 0-8.82-3.94-8.82-8.82s3.95-8.83 8.83-8.83h44.13c4.88 0 8.83 3.94 8.83 8.82s-3.95 8.82-8.83 8.82"/><path fill="#8697CB" d="M203.03 282.48h-26.48c-4.87 0-8.83-3.94-8.83-8.83s3.96-8.82 8.83-8.82h26.48c4.88 0 8.83 3.94 8.83 8.83s-3.95 8.82-8.83 8.82"/><path fill="#F0C419" d="M353.1 282.48H256c-4.87 0-8.83-3.94-8.83-8.83s3.96-8.82 8.83-8.82h97.1c4.88 0 8.83 3.94 8.83 8.83s-3.95 8.82-8.83 8.82"/><path fill="#4FBA6F" d="M256 326.62h-79.45c-4.87 0-8.83-3.95-8.83-8.83 0-4.9 3.96-8.84 8.83-8.84H256c4.87 0 8.83 3.95 8.83 8.83s-3.96 8.82-8.83 8.82"/><path fill="#E64C3C" d="M353.1 326.62h-44.14c-4.87 0-8.82-3.95-8.82-8.83 0-4.9 3.95-8.84 8.83-8.84h44.13c4.88 0 8.83 3.95 8.83 8.83s-3.95 8.82-8.83 8.82"/><path fill="#8697CB" d="M203.03 370.76h-26.48c-4.87 0-8.83-3.95-8.83-8.83s3.96-8.83 8.83-8.83h26.48c4.88 0 8.83 3.95 8.83 8.83s-3.95 8.83-8.83 8.83"/><path fill="#F0C419" d="M353.1 370.76H256c-4.87 0-8.83-3.95-8.83-8.83s3.96-8.83 8.83-8.83h97.1c4.88 0 8.83 3.95 8.83 8.83s-3.95 8.83-8.83 8.83"/></svg>