<svg xmlns="http://www.w3.org/2000/svg" width="256" height="256" preserveAspectRatio="xMidYMid"><path fill="#DD4814" d="M255.64 127.68c0 70.52-57.17 127.68-127.7 127.68C57.45 255.36.28 198.2.28 127.68.27 57.18 57.44 0 127.95 0c70.52 0 127.7 57.17 127.7 127.68z"/><path fill="#fff" d="M41.13 110.63c-9.42 0-17.05 7.63-17.05 17.05 0 9.42 7.63 17.05 17.05 17.05 9.42 0 17.05-7.63 17.05-17.05 0-9.42-7.63-17.05-17.05-17.05zm121.72 77.48c-8.16 4.72-10.95 15.14-6.24 23.3 4.7 8.14 15.13 10.94 23.3 6.23 8.14-4.7 10.94-15.12 6.23-23.28-4.7-8.15-15.13-10.94-23.28-6.24zm-84.7-60.42c0-16.84 8.38-31.73 21.18-40.74L86.87 66.07c-14.9 9.97-26 25.2-30.62 43.04 5.38 4.4 8.82 11.1 8.82 18.58 0 7.5-3.44 14.18-8.82 18.57 4.6 17.84 15.7 33.08 30.62 43.05l12.46-20.88c-12.8-9-21.17-23.9-21.17-40.74zm49.8-49.8c26.02 0 47.36 19.95 49.6 45.4l24.3-.37c-1.2-18.77-9.4-35.63-22-48.02-6.5 2.44-13.98 2.07-20.45-1.66-6.5-3.74-10.55-10.05-11.66-16.9-6.3-1.74-12.93-2.7-19.8-2.7-11.77 0-22.9 2.78-32.8 7.67l11.84 21.22c6.37-2.97 13.48-4.63 20.97-4.63zm0 99.6c-7.5 0-14.6-1.67-20.97-4.64l-11.84 21.23c9.9 4.9 21.03 7.67 32.8 7.67 6.87 0 13.5-.95 19.8-2.7 1.1-6.85 5.18-13.15 11.66-16.9 6.47-3.74 13.96-4.1 20.44-1.65 12.6-12.4 20.8-29.27 22-48.05l-24.3-.35c-2.23 25.44-23.57 45.38-49.6 45.38zm34.9-110.24c8.15 4.7 18.57 1.92 23.27-6.23 4.7-8.14 1.92-18.56-6.23-23.27-8.17-4.7-18.6-1.9-23.3 6.24-4.7 8.15-1.9 18.57 6.24 23.27z"/></svg>